<svg width="38" height="37" xmlns="http://www.w3.org/2000/svg" xmlns:xlink="http://www.w3.org/1999/xlink" xml:space="preserve" overflow="hidden"><defs><clipPath id="clip0"><rect x="685" y="239" width="38" height="37"/></clipPath></defs><g clip-path="url(#clip0)" transform="translate(-685 -239)"><path d="M18.5 15.4167C16.7995 15.4167 15.4167 16.7995 15.4167 18.5 15.4167 20.2005 16.7995 21.5833 18.5 21.5833 20.2005 21.5833 21.5833 20.2005 21.5833 18.5 21.5833 16.7995 20.2005 15.4167 18.5 15.4167ZM18.5 20.0417C17.6505 20.0417 16.9583 19.3495 16.9583 18.5 16.9583 17.6505 17.6505 16.9583 18.5 16.9583 19.3495 16.9583 20.0417 17.6505 20.0417 18.5 20.0417 19.3495 19.3495 20.0417 18.5 20.0417ZM28.0583 14.8123C28.2171 14.2142 28.1308 13.5913 27.8194 13.0595 27.508 12.526 27.0085 12.1452 26.4103 11.988 25.8152 11.8307 25.1924 11.9171 24.6574 12.227L23.6677 12.8035C22.8398 12.0512 21.8701 11.4916 20.811 11.1586L20.811 10.0208C20.811 8.74587 19.7734 7.70833 18.4985 7.70833 17.2235 7.70833 16.186 8.74587 16.186 10.0208L16.186 11.1586C15.1268 11.4916 14.1571 12.0527 13.3292 12.8051L12.341 12.2285C11.8076 11.9171 11.1848 11.8323 10.5866 11.9895 9.99 12.1468 9.48896 12.5276 9.17754 13.0595 8.86613 13.5929 8.78133 14.2157 8.93704 14.8123 9.09275 15.409 9.47508 15.9115 10.0085 16.223L11.0044 16.8042C10.8595 17.3977 10.7886 17.9573 10.7886 18.5015 10.7886 19.0457 10.8595 19.6038 11.0044 20.1974L10.0085 20.7786C9.47508 21.09 9.09429 21.591 8.93704 22.1892 8.77979 22.7874 8.86613 23.4102 9.17754 23.9421 9.48896 24.4755 9.98846 24.8563 10.5866 25.0135 11.1848 25.1693 11.8076 25.086 12.3395 24.773L13.3277 24.1965C14.1556 24.9503 15.1268 25.51 16.1844 25.843L16.1844 26.9807C16.1844 28.2557 17.222 29.2932 18.4969 29.2932 19.7719 29.2932 20.8094 28.2557 20.8094 26.9807L20.8094 25.843C21.8685 25.51 22.8382 24.9503 23.6661 24.1965L24.6543 24.773C25.1908 25.0845 25.8137 25.1693 26.4087 25.0135 27.0069 24.8563 27.5064 24.4755 27.8178 23.9421 28.1292 23.4087 28.2156 22.7858 28.0568 22.1892 27.8995 21.591 27.5203 21.0915 26.9869 20.7801L25.991 20.1989C26.1359 19.6069 26.2068 19.0473 26.2068 18.5031 26.2068 17.9589 26.1359 17.3993 25.991 16.8057L26.9869 16.226C27.5218 15.9146 27.9011 15.4136 28.0568 14.8154ZM26.5675 14.4207C26.5151 14.6196 26.3887 14.7861 26.2114 14.8894L24.7021 15.7697C24.3922 15.9516 24.2473 16.3232 24.3552 16.667 24.568 17.3438 24.6667 17.9265 24.6667 18.4985 24.6667 19.0704 24.568 19.6532 24.3552 20.3284 24.2473 20.6722 24.3892 21.0437 24.7021 21.2257L26.2114 22.1075C26.3887 22.2108 26.5151 22.3773 26.5675 22.5762 26.62 22.775 26.5922 22.9832 26.4874 23.1605 26.3841 23.3377 26.216 23.4657 26.0172 23.5166 25.8214 23.5705 25.6133 23.5428 25.4329 23.4364L23.9344 22.5623C23.6291 22.3819 23.2298 22.4374 22.9847 22.701 22.1368 23.6045 21.0592 24.2257 19.869 24.4971 19.5175 24.5772 19.2693 24.8887 19.2693 25.2479L19.2693 26.9745C19.2693 27.4 18.924 27.7454 18.4985 27.7454 18.073 27.7454 17.7276 27.4 17.7276 26.9745L17.7276 25.2479C17.7276 24.8887 17.4794 24.5757 17.1279 24.4971 15.9362 24.2257 14.8586 23.6045 14.0122 22.701 13.8627 22.5407 13.6576 22.4575 13.4495 22.4575 13.3169 22.4575 13.1828 22.4914 13.061 22.5623L11.564 23.4364C11.3883 23.5397 11.1786 23.569 10.9797 23.5166 10.7809 23.4642 10.6144 23.3377 10.5095 23.1589 10.4062 22.9816 10.377 22.7735 10.4294 22.5762 10.4818 22.3773 10.6082 22.2092 10.7855 22.106L12.2948 21.2241C12.6062 21.0422 12.7496 20.6707 12.6417 20.3269 12.4289 19.6501 12.3302 19.0673 12.3302 18.4954 12.3302 17.9234 12.4289 17.3422 12.6417 16.6639 12.7496 16.3201 12.6062 15.9485 12.2948 15.7682L10.7855 14.8879C10.6082 14.7846 10.4802 14.6165 10.4294 14.4177 10.377 14.2188 10.4047 14.0122 10.5095 13.8334 10.6128 13.6561 10.7809 13.5281 10.9797 13.4772 11.1771 13.4233 11.3868 13.4526 11.564 13.5559L13.061 14.43C13.3709 14.6104 13.7655 14.5549 14.0122 14.2928 14.8586 13.3894 15.9377 12.7681 17.1279 12.4967 17.4794 12.4166 17.7276 12.1052 17.7276 11.746L17.7276 10.0193C17.7276 9.59379 18.073 9.24846 18.4985 9.24846 18.924 9.24846 19.2693 9.59379 19.2693 10.0193L19.2693 11.746C19.2693 12.1052 19.5175 12.4181 19.869 12.4967 21.0592 12.7681 22.1383 13.3894 22.9847 14.2928 23.2298 14.5549 23.6291 14.6119 23.9344 14.43L25.4329 13.5559C25.6086 13.4541 25.8121 13.4233 26.0172 13.4772 26.216 13.5297 26.3825 13.6561 26.4874 13.8334 26.5907 14.0122 26.62 14.2188 26.5675 14.4177ZM37 19.3032C36.576 29.2269 28.4484 37 18.5 37 13.1319 37 8.16313 34.7122 4.64813 30.7192 4.64504 30.7593 4.625 30.7933 4.625 30.8333L4.625 36.2292C4.625 36.6547 4.27967 37 3.85417 37 3.42867 37 3.08333 36.6547 3.08333 36.2292L3.08333 30.8333C3.08333 30.1149 3.33925 29.4628 3.75242 28.9386 3.80329 28.8415 3.86958 28.7521 3.96208 28.6812 3.96208 28.6812 3.96517 28.6812 3.96671 28.6781 4.52633 28.1061 5.30487 27.75 6.16667 27.75L11.5625 27.75C11.988 27.75 12.3333 28.0953 12.3333 28.5208 12.3333 28.9463 11.988 29.2917 11.5625 29.2917L6.16667 29.2917C5.95083 29.2917 5.74579 29.3379 5.55925 29.4196 8.79367 33.2553 13.4541 35.4583 18.5 35.4583 27.6205 35.4583 35.0698 28.3328 35.4583 19.2385 35.4768 18.8145 35.779 18.4707 36.2615 18.5015 36.6855 18.52 37.017 18.8792 37 19.3048ZM1.54167 17.7615C1.52471 18.1762 1.18246 18.5 0.772375 18.5 0.761583 18.5 0.74925 18.5 0.738458 18.5 0.312958 18.4815-0.0169583 18.1223 0.00154167 17.6968 0.4255 7.77308 8.55008 0 18.5 0 23.8681 0 28.8369 2.28783 32.3519 6.28075 32.355 6.24067 32.375 6.20675 32.375 6.16667L32.375 0.770833C32.375 0.345333 32.7203 0 33.1458 0 33.5713 0 33.9167 0.345333 33.9167 0.770833L33.9167 6.16667C33.9167 6.88508 33.6592 7.53721 33.2476 8.06137 33.1967 8.1585 33.1304 8.24792 33.0379 8.31883 33.0364 8.31883 33.0348 8.31883 33.0333 8.32192 32.4737 8.89233 31.6951 9.25 30.8349 9.25L25.439 9.25C25.0135 9.25 24.6682 8.90467 24.6682 8.47917 24.6682 8.05367 25.0135 7.70833 25.439 7.70833L30.8349 7.70833C31.0507 7.70833 31.2557 7.66208 31.4438 7.58192 28.211 3.74625 23.549 1.54167 18.5015 1.54167 9.3795 1.54167 1.93017 8.66725 1.54167 17.7615Z" transform="matrix(1.02703 0 0 1 685 239)"/></g></svg>