<svg width="38" height="37" xmlns="http://www.w3.org/2000/svg" xmlns:xlink="http://www.w3.org/1999/xlink" xml:space="preserve" overflow="hidden"><defs><clipPath id="clip0"><rect x="534" y="239" width="38" height="37"/></clipPath></defs><g clip-path="url(#clip0)" transform="translate(-534 -239)"><path d="M18.5 36.2292C18.5 36.6547 18.1547 37 17.7292 37L6.9375 37C3.11262 37 0 33.8874 0 30.0625L0 6.9375C0 3.11262 3.11262 0 6.9375 0L20.8125 0C24.6374 0 27.75 3.11262 27.75 6.9375L27.75 26.9792C27.75 27.4047 27.4047 27.75 26.9792 27.75 26.5537 27.75 26.2083 27.4047 26.2083 26.9792L26.2083 6.9375C26.2083 3.96208 23.7879 1.54167 20.8125 1.54167L6.9375 1.54167C3.96208 1.54167 1.54167 3.96208 1.54167 6.9375L1.54167 30.0625C1.54167 33.0379 3.96208 35.4583 6.9375 35.4583L17.7292 35.4583C18.1547 35.4583 18.5 35.8037 18.5 36.2292ZM20.8125 7.70833 6.9375 7.70833C6.512 7.70833 6.16667 8.05367 6.16667 8.47917 6.16667 8.90467 6.512 9.25 6.9375 9.25L20.8125 9.25C21.238 9.25 21.5833 8.90467 21.5833 8.47917 21.5833 8.05367 21.238 7.70833 20.8125 7.70833ZM21.5833 16.1875C21.5833 15.762 21.238 15.4167 20.8125 15.4167L6.9375 15.4167C6.512 15.4167 6.16667 15.762 6.16667 16.1875 6.16667 16.613 6.512 16.9583 6.9375 16.9583L20.8125 16.9583C21.238 16.9583 21.5833 16.613 21.5833 16.1875ZM6.9375 23.125C6.512 23.125 6.16667 23.4703 6.16667 23.8958 6.16667 24.3213 6.512 24.6667 6.9375 24.6667L11.5625 24.6667C11.988 24.6667 12.3333 24.3213 12.3333 23.8958 12.3333 23.4703 11.988 23.125 11.5625 23.125L6.9375 23.125ZM36.7749 25.3311C36.4743 25.0305 35.9856 25.0305 35.685 25.3311L26.1883 34.8278C25.362 35.6772 23.9313 35.6603 23.1281 34.8124L18.6264 30.2213C18.3273 29.9176 17.8386 29.9114 17.5365 30.2105 17.2327 30.508 17.2281 30.9967 17.5257 31.3005L22.0258 35.8915C23.3963 37.3515 25.8923 37.3638 27.2782 35.9193L36.7749 26.4226C37.0755 26.122 37.0755 25.6333 36.7749 25.3327Z" transform="matrix(1.02703 0 0 1 534 239)"/></g></svg>