<svg width="38" height="38" xmlns="http://www.w3.org/2000/svg" xmlns:xlink="http://www.w3.org/1999/xlink" xml:space="preserve" overflow="hidden"><defs><clipPath id="clip0"><rect x="378" y="531" width="38" height="38"/></clipPath></defs><g clip-path="url(#clip0)" transform="translate(-378 -531)"><path d="M380.281 551.36C380.281 552.616 381.303 553.638 382.559 553.638 383.815 553.638 384.837 552.616 384.837 551.36 384.837 551.191 384.818 551.027 384.783 550.869L388.055 549.23C388.473 549.714 389.091 550.022 389.779 550.022 391.546 550.022 392.641 548.086 391.733 546.574L395.834 542.467C396.774 543.029 397.993 542.844 398.724 541.997L401.997 543.636C401.681 545.065 402.776 546.405 404.221 546.405 406.19 546.405 407.232 544.058 405.907 542.598L410.681 535.425C412.165 535.952 413.719 534.842 413.719 533.278 413.719 532.022 412.697 531 411.441 531 410.185 531 409.163 532.022 409.163 533.278 409.163 533.866 409.387 534.403 409.755 534.807L404.981 541.98C404.106 541.67 403.119 541.919 402.497 542.641L399.224 541.002C399.259 540.844 399.278 540.679 399.278 540.511 399.278 539.255 398.256 538.233 397 538.233 395.234 538.233 394.138 540.168 395.046 541.68L390.946 545.788C389.248 544.772 387.124 546.279 387.556 548.235L384.283 549.874C382.911 548.284 380.281 549.252 380.281 551.36ZM411.441 532.113C412.083 532.113 412.606 532.636 412.606 533.278 412.606 533.92 412.083 534.442 411.441 534.442 410.799 534.442 410.277 533.92 410.277 533.278 410.277 532.636 410.799 532.113 411.441 532.113ZM404.221 542.963C404.863 542.963 405.385 543.485 405.385 544.127 405.385 544.769 404.863 545.292 404.221 545.292 403.579 545.292 403.056 544.769 403.056 544.127 403.056 543.485 403.578 542.963 404.221 542.963ZM397 539.346C397.642 539.346 398.165 539.869 398.165 540.511 398.165 541.153 397.642 541.675 397 541.675 396.358 541.675 395.835 541.153 395.835 540.511 395.835 539.869 396.358 539.346 397 539.346ZM389.779 546.579C390.421 546.579 390.944 547.101 390.944 547.744 390.944 548.386 390.421 548.908 389.779 548.908 389.137 548.908 388.615 548.386 388.615 547.744 388.615 547.101 389.137 546.579 389.779 546.579ZM382.559 552.525C381.917 552.525 381.394 552.002 381.394 551.36 381.394 550.718 381.917 550.196 382.559 550.196 383.201 550.196 383.723 550.718 383.723 551.36 383.723 552.002 383.201 552.525 382.559 552.525Z"/><path d="M415.014 567.887 414.325 567.887 414.325 555.655C414.325 555.347 414.076 555.098 413.768 555.098 413.461 555.098 413.212 555.347 413.212 555.655L413.212 567.887 409.671 567.887 409.671 540.155 413.212 540.155 413.212 553.057C413.212 553.365 413.461 553.614 413.768 553.614 414.076 553.614 414.325 553.365 414.325 553.057L414.325 540.064C414.325 539.5 413.866 539.042 413.303 539.042L409.58 539.042C409.016 539.042 408.558 539.5 408.558 540.064L408.558 567.887 407.104 567.887 407.104 550.964C407.104 550.4 406.646 549.942 406.082 549.942L405.52 549.942C405.212 549.942 404.963 550.191 404.963 550.498 404.963 550.806 405.212 551.055 405.52 551.055L405.991 551.055 405.991 567.887 402.45 567.887 402.45 551.055 402.922 551.055C403.229 551.055 403.479 550.806 403.479 550.498 403.479 550.191 403.229 549.942 402.922 549.942L402.359 549.942C401.796 549.942 401.337 550.4 401.337 550.964L401.337 567.887 399.884 567.887 399.884 547.316C399.884 546.752 399.425 546.294 398.862 546.294L395.139 546.294C394.575 546.294 394.117 546.752 394.117 547.316L394.117 567.887 392.663 567.887 392.663 554.58C392.663 554.017 392.205 553.558 391.641 553.558L387.918 553.558C387.354 553.558 386.896 554.017 386.896 554.58L386.896 567.887 385.443 567.887 385.443 558.197C385.443 557.633 384.984 557.175 384.421 557.175L380.697 557.175C380.134 557.175 379.675 557.633 379.675 558.197L379.675 567.887 378.986 567.887C378.679 567.887 378.43 568.136 378.43 568.443 378.43 568.751 378.679 569 378.986 569L415.014 569C415.321 569 415.57 568.751 415.57 568.443 415.57 568.136 415.321 567.887 415.014 567.887ZM380.788 567.887 380.788 558.288 384.329 558.288 384.329 567.887ZM388.009 567.887 388.009 554.671 391.55 554.671 391.55 567.887ZM395.23 567.887 395.23 547.407 398.77 547.407 398.77 567.887Z"/></g></svg>